<svg width="24" height="24" fill="none" xmlns="http://www.w3.org/2000/svg"><path opacity=".4" d="M12 22c5.523 0 10-4.477 10-10S17.523 2 12 2 2 6.477 2 12c0 1.511.335 2.945.936 4.229l-.713 4.396a1 1 0 001.151 1.146l4.356-.726A9.96 9.96 0 0012 22z" fill="#CCBC67"/><path d="M16 15.111v-.436c0-.542-.33-1.03-.833-1.23l-.466-.187a1.08 1.08 0 00-1.14.215c-.165.154-.38.273-.594.199a4.358 4.358 0 01-1.634-1.005 4.358 4.358 0 01-1.005-1.634c-.074-.213.045-.429.199-.593.28-.298.375-.74.215-1.14l-.187-.467A1.325 1.325 0 009.325 8H8.89a.889.889 0 00-.89.889A7.111 7.111 0 0015.111 16a.889.889 0 00.889-.889z" fill="#CCBC67"/></svg>